<?xml version="1.0" encoding="utf-8"?><svg id="handanimation_svg" image-rendering="auto" baseProfile="basic" version="1.1" x="0px" y="0px" width="323" height="518" xmlns="http://www.w3.org/2000/svg" xmlns:xlink="http://www.w3.org/1999/xlink"><defs><g id="finger5" overflow="visible"><path fill="#FFCEA3" stroke="none" d="M11.2 -26.5Q11.2 -31.1 7.95 -34.45 4.6 -37.7 0 -37.7 -4.6 -37.7 -7.95 -34.45 -11.2 -31.1 -11.2 -26.5L-11.2 26.35Q-11.2 31 -7.95 34.3 -4.6 37.65 0 37.65 4.6 37.65 7.95 34.3 11.2 31 11.2 26.35L11.2 -26.5Z"/></g><g id="finger6" overflow="visible"><path fill="#FFCEA3" stroke="none" d="M11.15 -41.35Q11.15 -45.95 7.9 -49.3 4.55 -52.55 -.05 -52.55 -4.65 -52.55 -8 -49.3 -11.2 -45.95 -11.2 -41.35L-11.2 41.25Q-11.2 45.85 -8 49.2 -4.65 52.5 -.05 52.5 4.55 52.5 7.9 49.2 11.15 45.85 11.15 41.25L11.15 -41.35Z"/></g><g id="finger7" overflow="visible"><path fill="#FFCEA3" stroke="none" d="M11.25 -41.3Q11.25 -45.9 8 -49.25 4.7 -52.5 .05 -52.5 -4.55 -52.5 -7.9 -49.25 -11.2 -45.9 -11.2 -41.3L-11.2 41.3Q-11.2 45.9 -7.9 49.25 -4.55 52.5 .05 52.5 4.7 52.5 8 49.25 11.25 45.9 11.25 41.3L11.25 -41.3Z"/></g><g id="finger8" overflow="visible"><path fill="#FFCEA3" stroke="none" d="M11.25 -32.75Q11.25 -37.4 8 -40.7 4.7 -44.05 0 -44.05 -4.65 -44.05 -7.95 -40.7 -11.2 -37.4 -11.2 -32.75L-11.2 32.85Q-11.2 37.45 -7.95 40.8 -4.65 44.05 0 44.05 4.7 44.05 8 40.8 11.25 37.45 11.25 32.85L11.25 -32.75Z"/></g><g id="finger9" overflow="visible"><path fill="#FFCEA3" stroke="none" d="M11.4 -29.7L5.25 -29.7Q-1.65 -29.7 -6.45 -24.85 -11.35 -19.95 -11.35 -13.1L-11.35 29.65 11.4 6.9 11.4 -29.7Z"/></g></defs><g id="Scene-1" overflow="visible"><path fill="#2E4960" stroke="none" d="M.35 518.05L105.2 518.05 105.2 471 .35 471 .35 518.05M219 518.05L323.85 518.05 323.85 471 219 471 219 518.05M323.85 376L219 376 219 470.95 323.85 470.95 323.85 376M105.2 376L.35 376 .35 470.95 105.2 470.95 105.2 376M105.2 249.1L101.5 249.1 4.1 249.1 .35 249.1 .35 375.95 105.2 375.95 105.2 249.1M323.85 249.1L320.1 249.1 222.7 249.1 219 249.1 219 375.95 323.85 375.95 323.85 249.1Z"/><path fill="#FFF" stroke="none" d="M101.5 232.3L88.65 232.3 16.95 232.3 4.1 232.3 4.1 249.1 101.5 249.1 101.5 232.3M320.1 232.3L307.25 232.3 235.55 232.3 222.7 232.3 222.7 249.1 320.1 249.1 320.1 232.3Z"/><path fill="#FFCEA3" stroke="none" d="M13.8 106.05Q5.25 114.6 5.25 126.65L5.25 173.95Q5.25 186 13.8 194.55 15.319 196.060 16.95 197.3L16.95 232.3 88.65 232.3 88.65 202.25Q96.009 200.557 101.8 195L101.8 195.9 138.85 158.75 138.85 131.15Q133.25 132.15 129.55 135.9L110.8 154.65 110.8 126.65Q110.8 114.6 102.3 106.05 93.75 97.5 81.7 97.5L34.4 97.5Q22.35 97.5 13.8 106.05M221.9 106.05Q213.4 114.6 213.4 126.65L213.4 154.65 194.65 135.9Q190.95 132.15 185.35 131.15L185.35 158.75 222.4 195.9 222.4 195Q228.191 200.557 235.55 202.25L235.55 232.3 307.25 232.3 307.25 197.3Q308.880 196.060 310.4 194.55 318.95 186 318.95 173.95L318.95 126.65Q318.95 114.6 310.4 106.05 301.85 97.5 289.8 97.5L242.5 97.5Q230.45 97.5 221.9 106.05Z"/><path fill="#0D3752" stroke="none" d="M311.1 273.2Q312.55 271.75 312.55 269.7 312.55 267.6 311.1 266.15 309.6 264.7 307.55 264.7 305.5 264.7 304.05 266.15 302.55 267.6 302.55 269.7 302.55 271.75 304.05 273.2 305.5 274.7 307.55 274.7 309.6 274.7 311.1 273.2M11.65 269.7Q11.65 271.75 13.1 273.2 14.6 274.7 16.65 274.7 18.7 274.7 20.15 273.2 21.65 271.75 21.65 269.7 21.65 267.6 20.15 266.15 18.7 264.7 16.65 264.7 14.6 264.7 13.1 266.15 11.65 267.6 11.65 269.7Z"/><use xlink:href="#finger9" transform="translate(127.4 140)"><animateTransform attributeName="transform" additive="replace" type="translate" repeatCount="indefinite" dur="2.25s" keyTimes="0;.074;.222;.24099;.315;.481;.49999;.574;.722;.74099;.833;.981;1" values="127.4,140;127.4,144;127.4,140;127.4,140;127.4,144;127.4,140;127.4,140;127.4,144;127.4,140;127.4,140;127.4,144;127.4,140;127.4,140"/></use><use xlink:href="#finger8" transform="translate(99.5 84)"><animateTransform attributeName="transform" additive="replace" type="translate" repeatCount="indefinite" dur="2.25s" keyTimes="0;.111;.185;.20399;.315;.389;.40699;.5;.574;.59299;.704;.778;.79599;.907;.981;1" values="99.5,84;99.5,94;99.5,84;99.5,84;99.5,94;99.5,84;99.5,84;99.5,94;99.5,84;99.5,84;99.5,94;99.5,84;99.5,84;99.5,94;99.5,84;99.5,84"/></use><use xlink:href="#finger7" transform="translate(71.5 85)"><animateTransform attributeName="transform" additive="replace" type="translate" repeatCount="indefinite" dur="2.25s" keyTimes="0;.167;.315;.33299;.5;.648;.66699;.833;.981;1" values="71.5,85;71.5,92;71.5,85;71.5,85;71.5,92;71.5,85;71.5,85;71.5,92;71.5,85;71.5,85"/></use><use xlink:href="#finger6" transform="translate(43.55 98)"><animateTransform attributeName="transform" additive="replace" type="translate" repeatCount="indefinite" dur="2.25s" keyTimes="0;.074;.148;.16699;.241;.315;.33299;.407;.481;.49999;.574;.648;.66699;.741;.815;.83299;.907;.981;1" values="43.55,98;43.55,106;43.55,98;43.55,98;43.55,106;43.55,98;43.55,98;43.55,106;43.55,98;43.55,98;43.55,106;43.55,98;43.55,98;43.55,106;43.55,98;43.55,98;43.55,106;43.55,98;43.55,98"/></use><use xlink:href="#finger5" transform="translate(16.5 99)"><animateTransform attributeName="transform" additive="replace" type="translate" repeatCount="indefinite" dur="2.25s" keyTimes="0;.093;.222;.24099;.352;.481;.49999;.611;.722;.74099;.852;.981;1" values="16.5,99;16.5,109;16.5,99;16.5,99;16.5,109;16.5,99;16.5,99;16.5,109;16.5,99;16.5,99;16.5,109;16.5,99;16.5,99"/></use><use xlink:href="#finger9" transform="matrix(-1 0 0 1 196.7 140)"><animateTransform attributeName="transform" additive="replace" type="translate" repeatCount="indefinite" dur="2.25s" keyTimes="0;.074;.241;.25899;.333;.481;.49999;.593;.741;.75899;.833;.981;1" values="196.7,140;196.7,144;196.7,140;196.7,140;196.7,144;196.7,140;196.7,140;196.7,144;196.7,140;196.7,140;196.7,144;196.7,140;196.7,140"/><animateTransform attributeName="transform" additive="sum" type="skewY" repeatCount="indefinite" dur="2.25s" keyTimes="0;1" values="180;180"/><animateTransform attributeName="transform" additive="sum" type="scale" repeatCount="indefinite" dur="2.25s" keyTimes="0;1" values="-1,1;-1,1"/></use><use xlink:href="#finger8" transform="matrix(-1 0 0 1 224.6 84)"><animateTransform attributeName="transform" additive="replace" type="translate" repeatCount="indefinite" dur="2.25s" keyTimes="0;.111;.185;.20399;.296;.37;.38899;.5;.574;.59299;.704;.778;.79599;.907;.981;1" values="224.6,84;224.6,94;224.6,84;224.6,84;224.6,94;224.6,84;224.6,84;224.6,94;224.6,84;224.6,84;224.6,94;224.6,84;224.6,84;224.6,94;224.6,84;224.6,84"/><animateTransform attributeName="transform" additive="sum" type="skewY" repeatCount="indefinite" dur="2.25s" keyTimes="0;1" values="180;180"/><animateTransform attributeName="transform" additive="sum" type="scale" repeatCount="indefinite" dur="2.25s" keyTimes="0;1" values="-1,1;-1,1"/></use><use xlink:href="#finger7" transform="matrix(-1 0 0 1 253.2 85)"><animateTransform attributeName="transform" additive="replace" type="translate" repeatCount="indefinite" dur="2.25s" keyTimes="0;.148;.315;.33299;.481;.648;.66699;.815;.981;1" values="253.2,85;253.2,92;253.2,85;253.2,85;253.2,92;253.2,85;253.2,85;253.2,92;253.2,85;253.2,85"/><animateTransform attributeName="transform" additive="sum" type="skewY" repeatCount="indefinite" dur="2.25s" keyTimes="0;1" values="180;180"/><animateTransform attributeName="transform" additive="sum" type="scale" repeatCount="indefinite" dur="2.25s" keyTimes="0;1" values="-1,1;-1,1"/></use><use xlink:href="#finger6" transform="matrix(-1 0 0 1 281.15 98)"><animateTransform attributeName="transform" additive="replace" type="translate" repeatCount="indefinite" dur="2.25s" keyTimes="0;.074;.148;.16699;.241;.315;.33299;.407;.481;.49999;.574;.648;.66699;.741;.815;.83299;.907;.981;1" values="281.15,98;281.15,106;281.15,98;281.15,98;281.15,106;281.15,98;281.15,98;281.15,106;281.15,98;281.15,98;281.15,106;281.15,98;281.15,98;281.15,106;281.15,98;281.15,98;281.15,106;281.15,98;281.15,98"/><animateTransform attributeName="transform" additive="sum" type="skewY" repeatCount="indefinite" dur="2.25s" keyTimes="0;1" values="180;180"/><animateTransform attributeName="transform" additive="sum" type="scale" repeatCount="indefinite" dur="2.25s" keyTimes="0;1" values="-1,1;-1,1"/></use><use xlink:href="#finger5" transform="matrix(-1 0 0 1 307.7 99)"><animateTransform attributeName="transform" additive="replace" type="translate" repeatCount="indefinite" dur="2.25s" keyTimes="0;.111;.241;.25899;.37;.481;.49999;.611;.741;.75899;.852;.981;1" values="307.7,99;307.7,109;307.7,99;307.7,99;307.7,109;307.7,99;307.7,99;307.7,109;307.7,99;307.7,99;307.7,109;307.7,99;307.7,99"/><animateTransform attributeName="transform" additive="sum" type="skewY" repeatCount="indefinite" dur="2.25s" keyTimes="0;1" values="180;180"/><animateTransform attributeName="transform" additive="sum" type="scale" repeatCount="indefinite" dur="2.25s" keyTimes="0;1" values="-1,1;-1,1"/></use></g></svg>